<svg xmlns="http://www.w3.org/2000/svg" viewBox="0 0 1200 630" width="1200" height="630" role="img" aria-label="Yingbin Chen | Finance, Data & Human Judgment">
  <defs>
    <radialGradient id="heroGlow" cx="78%" cy="20%" r="70%">
      <stop offset="0" stop-color="#155E75" stop-opacity="0.72"/>
      <stop offset="0.48" stop-color="#0F2533" stop-opacity="0.8"/>
      <stop offset="1" stop-color="#07111D"/>
    </radialGradient>
    <linearGradient id="line" x1="0" y1="0" x2="1" y2="1">
      <stop stop-color="#0F766E"/>
      <stop offset="0.55" stop-color="#67E8F9"/>
      <stop offset="1" stop-color="#A7F3FF"/>
    </linearGradient>
    <filter id="glow" x="-60%" y="-60%" width="220%" height="220%">
      <feGaussianBlur stdDeviation="7" result="blur"/>
      <feMerge>
        <feMergeNode in="blur"/>
        <feMergeNode in="SourceGraphic"/>
      </feMerge>
    </filter>
  </defs>
  <rect width="1200" height="630" fill="#07111D"/>
  <rect width="1200" height="630" fill="url(#heroGlow)"/>
  <g opacity="0.18" stroke="#67E8F9" stroke-width="1">
    <path d="M70 120H1130M70 220H1130M70 320H1130M70 420H1130M70 520H1130"/>
    <path d="M120 70V560M240 70V560M360 70V560M480 70V560M600 70V560M720 70V560M840 70V560M960 70V560M1080 70V560"/>
  </g>
  <g transform="translate(820 130)" opacity="0.92">
    <path d="M0 250 L100 160 L184 196 L284 72" fill="none" stroke="url(#line)" stroke-width="6" stroke-linecap="round" stroke-linejoin="round"/>
    <path d="M22 90 L100 160 M184 196 L240 318" fill="none" stroke="#67E8F9" stroke-width="3" stroke-linecap="round" opacity="0.46"/>
    <circle cx="0" cy="250" r="13" fill="#0F766E" stroke="#A7F3FF" stroke-width="3"/>
    <circle cx="100" cy="160" r="15" fill="#0B2533" stroke="#67E8F9" stroke-width="4"/>
    <circle cx="184" cy="196" r="12" fill="#0B2533" stroke="#67E8F9" stroke-width="3"/>
    <circle cx="284" cy="72" r="21" fill="#67E8F9" filter="url(#glow)"/>
    <circle cx="284" cy="72" r="8" fill="#ECFEFF"/>
  </g>
  <g transform="translate(86 98)">
    <text x="0" y="0" fill="#67E8F9" font-family="Inter, Arial, Helvetica, sans-serif" font-size="24" font-weight="700" letter-spacing="3">PERSONAL PORTFOLIO</text>
    <text x="0" y="112" fill="#F8FAFC" font-family="Inter, Arial, Helvetica, sans-serif" font-size="76" font-weight="800">Yingbin Chen</text>
    <text x="0" y="206" fill="#EAF7FA" font-family="Inter, Arial, Helvetica, sans-serif" font-size="58" font-weight="700">Finance, Data</text>
    <text x="0" y="274" fill="#EAF7FA" font-family="Inter, Arial, Helvetica, sans-serif" font-size="58" font-weight="700">&amp; Human Judgment</text>
    <rect x="0" y="328" width="620" height="1.8" fill="url(#line)" opacity="0.78"/>
    <text x="0" y="390" fill="#B7CAD6" font-family="Inter, Arial, Helvetica, sans-serif" font-size="28" font-weight="500">Accounting &amp; Finance · Interpretable ML · ESG · FinTech Operations</text>
  </g>
</svg>
